<svg width="40" height="27" viewBox="0 0 40 27" fill="none" xmlns="http://www.w3.org/2000/svg">
<path d="M8.15909 11.8636C8.17614 8.48864 10.1875 6.51136 13.1193 6.51136C16.0341 6.51136 17.7898 8.42045 17.7727 11.625V27H25.0341V10.3295C25.0341 4.22727 21.4545 0.477273 16 0.477273C12.1136 0.477273 9.30114 2.38636 8.125 5.4375H7.81818V0.818181H0.897727V27H8.15909V11.8636ZM24.0371 27H31.2985V12.1875C31.2985 8.96591 33.6507 6.75 36.8553 6.75C37.861 6.75 39.2416 6.92045 39.9235 7.14204V0.698862C39.2757 0.545454 38.3723 0.443181 37.6394 0.443181C34.7076 0.443181 32.3041 2.14773 31.3496 5.38636H31.0769V0.818181H24.0371V27Z" fill="white"/>
</svg>
