<svg width="26" height="30" viewBox="0 0 26 30" fill="none" xmlns="http://www.w3.org/2000/svg">
<g clip-path="url(#clip0)">
<path d="M23.2143 1.85718H2.78571C1.24777 1.85718 0 3.10495 0 4.64289V25.0715C0 26.6094 1.24777 27.8572 2.78571 27.8572H23.2143C24.7522 27.8572 26 26.6094 26 25.0715V4.64289C26 3.10495 24.7522 1.85718 23.2143 1.85718ZM16.0933 24.1255C15.6058 24.2125 15.4259 23.9107 15.4259 23.6612C15.4259 23.3478 15.4375 21.746 15.4375 20.4518C15.4375 19.5465 15.1357 18.9719 14.7817 18.6701C16.929 18.4322 19.1924 18.1362 19.1924 14.4277C19.1924 13.3715 18.8152 12.8433 18.2 12.1643C18.2987 11.9148 18.6295 10.8875 18.1013 9.55271C17.2946 9.30316 15.4491 10.5916 15.4491 10.5916C14.683 10.3768 13.8531 10.2666 13.0348 10.2666C12.2165 10.2666 11.3866 10.3768 10.6205 10.5916C10.6205 10.5916 8.775 9.30316 7.9683 9.55271C7.44018 10.8817 7.76518 11.909 7.86964 12.1643C7.25446 12.8433 6.96429 13.3715 6.96429 14.4277C6.96429 18.1188 9.12902 18.4322 11.2763 18.6701C10.9978 18.9197 10.7482 19.3491 10.6612 19.9643C10.1098 20.2139 8.69955 20.6433 7.85804 19.1576C7.32991 18.2407 6.37812 18.1652 6.37812 18.1652C5.43795 18.1536 6.31429 18.7572 6.31429 18.7572C6.94107 19.0474 7.38214 20.1616 7.38214 20.1616C7.94509 21.8853 10.6379 21.3049 10.6379 21.3049C10.6379 22.1116 10.6496 23.4233 10.6496 23.6612C10.6496 23.9107 10.4754 24.2125 9.98214 24.1255C6.15179 22.8429 3.47054 19.1982 3.47054 14.9384C3.47054 9.61075 7.54464 5.56566 12.8723 5.56566C18.2 5.56566 22.5179 9.61075 22.5179 14.9384C22.5237 19.1982 19.9237 22.8487 16.0933 24.1255ZM10.4 20.5795C10.2897 20.6027 10.1853 20.5563 10.1737 20.4808C10.1621 20.3938 10.2375 20.3183 10.3478 20.2951C10.458 20.2835 10.5625 20.3299 10.5741 20.4054C10.5915 20.4808 10.5161 20.5563 10.4 20.5795ZM9.84866 20.5273C9.84866 20.6027 9.76161 20.6666 9.64554 20.6666C9.51786 20.6782 9.4308 20.6143 9.4308 20.5273C9.4308 20.4518 9.51786 20.388 9.63393 20.388C9.7442 20.3764 9.84866 20.4402 9.84866 20.5273ZM9.05357 20.4634C9.03036 20.5389 8.91428 20.5737 8.81562 20.5389C8.70536 20.5157 8.62991 20.4286 8.65312 20.3532C8.67634 20.2777 8.79241 20.2429 8.89107 20.2661C9.00714 20.3009 9.08259 20.388 9.05357 20.4634ZM8.33973 20.15C8.2875 20.2139 8.17723 20.2023 8.09018 20.1152C8.00312 20.0398 7.97991 19.9295 8.03795 19.8773C8.09018 19.8134 8.20045 19.825 8.2875 19.9121C8.36295 19.9875 8.39196 20.1036 8.33973 20.15ZM7.81161 19.6219C7.75938 19.6567 7.66071 19.6219 7.59687 19.5349C7.53304 19.4478 7.53304 19.3491 7.59687 19.3085C7.66071 19.2563 7.75938 19.2969 7.81161 19.384C7.87545 19.471 7.87545 19.5755 7.81161 19.6219ZM7.43438 19.059C7.38214 19.1112 7.29509 19.0822 7.23125 19.0241C7.16741 18.9487 7.1558 18.8616 7.20804 18.821C7.26027 18.7688 7.34732 18.7978 7.41116 18.8558C7.475 18.9313 7.48661 19.0183 7.43438 19.059ZM7.04554 18.6295C7.02232 18.6817 6.94687 18.6933 6.88304 18.6527C6.80759 18.6179 6.77277 18.5541 6.79598 18.5018C6.8192 18.467 6.88304 18.4496 6.95848 18.4786C7.03393 18.5192 7.06875 18.5831 7.04554 18.6295Z" fill="white"/>
</g>
<defs>
<clipPath id="clip0">
<rect width="26" height="29.7143" fill="white"/>
</clipPath>
</defs>
</svg>
